<svg width="32" height="38" viewBox="0 0 32 38" fill="none" xmlns="http://www.w3.org/2000/svg">
<path d="M30.788 4.24827C30.3756 3.75163 29.7733 3.73736 29.087 3.72111C29.0092 3.71927 28.9304 3.7174 28.8506 3.7148C28.7899 3.7126 28.7228 3.71345 28.6528 3.71434C28.3744 3.71785 28.0488 3.72197 27.8848 3.53799C27.6946 3.3247 27.7126 2.91251 27.7275 2.57222C27.7322 2.4647 27.7366 2.36429 27.734 2.27967C27.7073 1.48919 27.6516 0.649502 27.2636 0.368794C26.9711 0.158184 26.096 0.187361 25.2889 0.214269C25.0272 0.222992 24.7727 0.231477 24.5476 0.231477H7.36847C7.02258 0.231477 6.66001 0.209323 6.30376 0.187555C5.6096 0.14514 4.93946 0.104193 4.46357 0.231477C3.77293 0.417105 3.72616 1.39254 3.68213 2.31106L3.67976 2.36048C3.64278 3.11876 3.40388 3.70387 2.6121 3.64493C1.69121 3.57749 0.77486 3.55622 0.358493 4.21181C-0.133246 4.98749 -0.0318303 5.79945 0.149821 7.2538C0.175769 7.46154 0.203354 7.6824 0.231081 7.91813H31.0536C31.0712 7.74583 31.09 7.57574 31.1084 7.4084C31.2527 6.09994 31.3785 4.95989 30.788 4.24827Z" fill="#8047F8"/>
<path fill-rule="evenodd" clip-rule="evenodd" d="M2.63144 9.36055C3.11283 14.4853 3.58896 19.616 4.0651 24.7467L4.06539 24.7499C4.32392 27.5357 4.58245 30.3215 4.84183 33.1065H5.8253C5.89231 33.5424 5.96899 34.0806 6.04984 34.648C6.21395 35.7998 6.39526 37.0723 6.54768 37.8542H6.65646C7.6582 37.5659 14.5834 35.2375 14.5865 25.9677C14.5852 25.9412 14.5864 25.9148 14.5898 25.8886H12.8789C12.7961 25.888 12.7158 25.8662 12.6504 25.8267C12.5851 25.7871 12.5382 25.732 12.517 25.6697C12.3503 25.3457 12.2159 25.0123 12.1149 24.6723C11.1084 25.1194 10.3091 25.8022 9.83099 26.6233C9.37711 25.7824 9.3177 24.8441 9.66315 23.9726C10.0086 23.101 10.7369 22.3515 11.7209 21.8552C11.7336 19.1502 13.0211 16.5427 15.3398 14.5262L15.376 14.5012C15.4434 14.4554 15.5297 14.4299 15.6191 14.4293C15.6709 14.4297 15.722 14.4383 15.7692 14.4548C15.817 14.4715 15.8598 14.4959 15.8947 14.5262C18.2405 16.5454 19.5212 19.178 19.4815 21.8989C20.4838 22.3815 21.2269 23.1304 21.573 24.0067C21.9191 24.883 21.8446 25.8272 21.3633 26.664C20.8877 25.8416 20.0878 25.1582 19.0794 24.7129C19.0178 25.0425 18.9043 25.3648 18.7416 25.6728C18.6853 25.8042 18.5727 25.8886 18.4601 25.8886H16.6355C16.6384 25.9043 16.6404 25.9201 16.6416 25.9359L16.6423 25.9396V25.9472C16.643 25.9609 16.643 25.9746 16.6424 25.9883C16.6673 35.5242 24.0303 37.6887 24.651 37.8542H24.8633C24.9175 37.1031 25.0939 36.0667 25.2659 35.0563C25.3844 34.36 25.5008 33.6761 25.5737 33.1065H26.5685C26.887 29.5985 27.2145 26.1004 27.542 22.6023L27.5422 22.6004L27.5423 22.5993C27.9612 18.1248 28.3801 13.6501 28.7801 9.15457H2.69515C2.62007 9.16612 2.62519 9.26272 2.63144 9.36055ZM15.6191 14.4293L15.6173 14.4293H15.6213L15.6191 14.4293Z" fill="#8047F8"/>
</svg>
